<svg width="139" height="50" xmlns="http://www.w3.org/2000/svg">
 <g>
  <title>background</title>
  <rect x="-1" y="-1" width="141" height="52" id="canvas_background" fill="none"/>
 </g>

 <g>
  <title>Layer 1</title>
  <g transform="translate(30,186.14524841308594) scale(1.117319941520691) " fill="#2d4760" stroke-miterlimit="10" stroke-dashoffset="0" font-family="sans-serif" font-weight="normal" font-size="12" text-anchor="start" id="svg_1">
   <g id="svg_2" stroke="null">
    <g id="svg_16" stroke="null">
     <g id="svg_15" stroke="null">
      <g id="svg_14" stroke="null">
       <path d="m-4.58447,-135.731485l-0.64692,9.1648l-10.72822,0l1.61732,-9.1648l0.16173,-1.99469l-8.19441,-23.72067l11.21341,0l0.48519,2.91117l2.64162,10.56648l0.64693,0l5.87626,-10.18911l1.61732,-3.28854l10.99776,0l-15.36452,23.8824l-0.32347,1.83296z" id="svg_10" stroke="null"/>
       <path d="m26.36023,-162.039865c3.41433,0 6.43333,0.4852 9.05698,1.45559l-2.85726,8.57178l-0.75475,0.37738c-0.86257,-0.50316 -1.88687,-0.90749 -3.07291,-1.21299c-1.18603,-0.3055 -2.30019,-0.45824 -3.34246,-0.45824c-2.73147,0 -4.66326,0.86257 -5.79539,2.58771c-1.13212,1.72514 -1.69818,4.47458 -1.69818,8.24832c0,2.62365 0.47621,4.54646 1.42863,5.76844c0.95242,1.22197 2.43496,1.83296 4.44763,1.83296c2.37206,0 4.65428,-0.37737 6.84664,-1.13212l0.75475,0.48519l-1.88687,8.51788c-2.2283,0.68287 -4.60037,1.0243 -7.1162,1.0243c-5.17542,0 -9.13785,-1.27589 -11.88729,-3.82765c-2.74944,-2.55177 -4.12416,-6.19972 -4.12416,-10.94386c0,-6.68491 1.73412,-11.90526 5.20237,-15.66103c3.46825,-3.75577 8.40107,-5.63366 14.79847,-5.63366z" id="svg_11" stroke="null"/>
       <path d="m53.42335,-135.731485l-0.64692,9.1648l-10.72822,0l1.61732,-9.1648l0.16173,-1.99469l-8.19441,-23.72067l11.21341,0l0.48519,2.91117l2.64162,10.56648l0.64693,0l5.87626,-10.18911l1.61732,-3.28854l10.99776,0l-15.36452,23.8824l-0.32347,1.83296z" id="svg_12" stroke="null"/>
       <path d="m84.36804,-162.039865c3.41434,0 6.43334,0.4852 9.05699,1.45559l-2.85726,8.57178l-0.75475,0.37738c-0.86257,-0.50316 -1.88687,-0.90749 -3.07291,-1.21299c-1.18603,-0.3055 -2.30019,-0.45824 -3.34246,-0.45824c-2.73147,0 -4.66326,0.86257 -5.79539,2.58771c-1.13212,1.72514 -1.69818,4.47458 -1.69818,8.24832c0,2.62365 0.47621,4.54646 1.42863,5.76844c0.95242,1.22197 2.43496,1.83296 4.44763,1.83296c2.37206,0 4.65428,-0.37737 6.84664,-1.13212l0.75475,0.48519l-1.88687,8.51788c-2.2283,0.68287 -4.60037,1.0243 -7.1162,1.0243c-5.17542,0 -9.13785,-1.27589 -11.88729,-3.82765c-2.74944,-2.55177 -4.12416,-6.19972 -4.12416,-10.94386c0,-6.68491 1.73412,-11.90526 5.20237,-15.66103c3.46825,-3.75577 8.40107,-5.63366 14.79846,-5.63366z" id="svg_13" stroke="null"/>
      </g>
     </g>
    </g>
   </g>
  </g>
 </g>
</svg>